<?xml version="1.0" encoding="utf-8" standalone="no"?>
<!DOCTYPE svg PUBLIC "-//W3C//DTD SVG 1.1//EN"
  "http://www.w3.org/Graphics/SVG/1.1/DTD/svg11.dtd">
<svg xmlns:xlink="http://www.w3.org/1999/xlink" width="273.6pt" height="223.2pt" viewBox="0 0 273.6 223.2" xmlns="http://www.w3.org/2000/svg" version="1.1">
 <title>Illustrative online learning curve — not measured</title>
 <metadata>
  <rdf:RDF xmlns:dc="http://purl.org/dc/elements/1.1/" xmlns:cc="http://creativecommons.org/ns#" xmlns:rdf="http://www.w3.org/1999/02/22-rdf-syntax-ns#">
   <cc:Work>
    <dc:type rdf:resource="http://purl.org/dc/dcmitype/StillImage"/>
    <dc:title>Illustrative online learning curve — not measured</dc:title>
    <dc:date>2026-10-04T16:39:59.817261</dc:date>
    <dc:description>Saturating trend plus correlated synthetic noise; no observations or estimated uncertainty</dc:description>
    <dc:format>image/svg+xml</dc:format>
    <dc:creator>
     <cc:Agent>
      <dc:title>Matplotlib v3.9.4, https://matplotlib.org/</dc:title>
     </cc:Agent>
    </dc:creator>
   </cc:Work>
  </rdf:RDF>
 </metadata>
 <defs>
  <style type="text/css">*{stroke-linejoin: round; stroke-linecap: butt}</style>
 </defs>
 <g id="figure_1">
  <g id="patch_1">
   <path d="M 0 223.2 
L 273.6 223.2 
L 273.6 0 
L 0 0 
z
" style="fill: #ffffff"/>
  </g>
  <g id="axes_1">
   <g id="patch_2">
    <path d="M 43.776 178.56 
L 258.552 178.56 
L 258.552 42.408 
L 43.776 42.408 
z
" style="fill: #ffffff"/>
   </g>
   <g id="matplotlib.axis_1">
    <g id="xtick_1">
     <g id="line2d_1"/>
     <g id="text_1">
      <text style="fill: #6c7786; font: 9px 'Helvetica Neue', 'Arial', 'DejaVu Sans', sans-serif; text-anchor: middle" x="43.776" y="191.986563" transform="rotate(-0 43.776 191.986563)">0</text>
     </g>
    </g>
    <g id="xtick_2">
     <g id="line2d_2"/>
     <g id="text_2">
      <text style="fill: #6c7786; font: 9px 'Helvetica Neue', 'Arial', 'DejaVu Sans', sans-serif; text-anchor: middle" x="97.47" y="191.986563" transform="rotate(-0 97.47 191.986563)">25</text>
     </g>
    </g>
    <g id="xtick_3">
     <g id="line2d_3"/>
     <g id="text_3">
      <text style="fill: #6c7786; font: 9px 'Helvetica Neue', 'Arial', 'DejaVu Sans', sans-serif; text-anchor: middle" x="151.164" y="191.986563" transform="rotate(-0 151.164 191.986563)">50</text>
     </g>
    </g>
    <g id="xtick_4">
     <g id="line2d_4"/>
     <g id="text_4">
      <text style="fill: #6c7786; font: 9px 'Helvetica Neue', 'Arial', 'DejaVu Sans', sans-serif; text-anchor: middle" x="204.858" y="191.986563" transform="rotate(-0 204.858 191.986563)">75</text>
     </g>
    </g>
    <g id="xtick_5">
     <g id="line2d_5"/>
     <g id="text_5">
      <text style="fill: #6c7786; font: 9px 'Helvetica Neue', 'Arial', 'DejaVu Sans', sans-serif; text-anchor: middle" x="258.552" y="191.986563" transform="rotate(-0 258.552 191.986563)">100</text>
     </g>
    </g>
    <g id="text_6">
     <text style="fill: #525a65; font: 10px 'Helvetica Neue', 'Arial', 'DejaVu Sans', sans-serif; text-anchor: middle" x="151.164" y="210.069219" transform="rotate(-0 151.164 210.069219)">Training progress (%)</text>
    </g>
   </g>
   <g id="matplotlib.axis_2">
    <g id="ytick_1">
     <g id="line2d_6">
      <path d="M 43.776 174.30525 
L 258.552 174.30525 
" clip-path="url(#p55b3cacafc)" style="fill: none; stroke: #e9ecf2; stroke-width: 0.65; stroke-linecap: square"/>
     </g>
     <g id="line2d_7"/>
     <g id="text_7">
      <text style="fill: #6c7786; font: 9px 'Helvetica Neue', 'Arial', 'DejaVu Sans', sans-serif; text-anchor: end" x="36.776" y="177.518531" transform="rotate(-0 36.776 177.518531)">30</text>
     </g>
    </g>
    <g id="ytick_2">
     <g id="line2d_8">
      <path d="M 43.776 131.75775 
L 258.552 131.75775 
" clip-path="url(#p55b3cacafc)" style="fill: none; stroke: #e9ecf2; stroke-width: 0.65; stroke-linecap: square"/>
     </g>
     <g id="line2d_9"/>
     <g id="text_8">
      <text style="fill: #6c7786; font: 9px 'Helvetica Neue', 'Arial', 'DejaVu Sans', sans-serif; text-anchor: end" x="36.776" y="134.971031" transform="rotate(-0 36.776 134.971031)">40</text>
     </g>
    </g>
    <g id="ytick_3">
     <g id="line2d_10">
      <path d="M 43.776 89.21025 
L 258.552 89.21025 
" clip-path="url(#p55b3cacafc)" style="fill: none; stroke: #e9ecf2; stroke-width: 0.65; stroke-linecap: square"/>
     </g>
     <g id="line2d_11"/>
     <g id="text_9">
      <text style="fill: #6c7786; font: 9px 'Helvetica Neue', 'Arial', 'DejaVu Sans', sans-serif; text-anchor: end" x="36.776" y="92.423531" transform="rotate(-0 36.776 92.423531)">50</text>
     </g>
    </g>
    <g id="ytick_4">
     <g id="line2d_12">
      <path d="M 43.776 46.66275 
L 258.552 46.66275 
" clip-path="url(#p55b3cacafc)" style="fill: none; stroke: #e9ecf2; stroke-width: 0.65; stroke-linecap: square"/>
     </g>
     <g id="line2d_13"/>
     <g id="text_10">
      <text style="fill: #6c7786; font: 9px 'Helvetica Neue', 'Arial', 'DejaVu Sans', sans-serif; text-anchor: end" x="36.776" y="49.876031" transform="rotate(-0 36.776 49.876031)">60</text>
     </g>
    </g>
    <g id="text_11">
     <text style="fill: #525a65; font: 10px 'Helvetica Neue', 'Arial', 'DejaVu Sans', sans-serif; text-anchor: middle" x="17.6785" y="110.484" transform="rotate(-90 17.6785 110.484)">Math avg. (%)</text>
    </g>
   </g>
   <g id="line2d_14">
    <path d="M 43.776 166.6467 
L 45.5658 165.794479 
L 47.3556 162.534698 
L 49.1454 162.486817 
L 50.9352 151.844589 
L 52.725 152.570974 
L 54.5148 146.073569 
L 56.3046 143.087526 
L 58.0944 138.42614 
L 59.8842 131.909309 
L 61.674 133.989599 
L 63.4638 131.60564 
L 65.2536 130.825561 
L 67.0434 124.242979 
L 68.8332 118.026668 
L 70.623 117.215666 
L 72.4128 113.738585 
L 74.2026 115.201444 
L 75.9924 119.811496 
L 77.7822 120.272846 
L 79.572 114.795341 
L 81.3618 112.755905 
L 83.1516 109.027447 
L 84.9414 109.052162 
L 86.7312 104.017748 
L 88.521 102.671959 
L 90.3108 100.509829 
L 92.1006 99.473543 
L 93.8904 96.333338 
L 95.6802 96.621159 
L 97.47 95.602757 
L 99.2598 98.138901 
L 101.0496 94.978278 
L 102.8394 90.553838 
L 104.6292 87.562613 
L 106.419 84.744747 
L 108.2088 82.678753 
L 109.9986 78.657576 
L 111.7884 76.666667 
L 113.5782 80.609064 
L 115.368 79.202225 
L 117.1578 80.135961 
L 118.9476 81.183176 
L 120.7374 78.817445 
L 122.5272 75.751656 
L 124.317 74.387882 
L 126.1068 77.727073 
L 127.8966 78.177775 
L 129.6864 76.771495 
L 131.4762 75.416842 
L 133.266 74.330257 
L 135.0558 71.884983 
L 136.8456 76.518177 
L 138.6354 73.50525 
L 140.4252 75.015955 
L 142.215 75.783931 
L 144.0048 72.587923 
L 145.7946 71.364902 
L 147.5844 68.697568 
L 149.3742 68.522851 
L 151.164 70.972514 
L 152.9538 69.500238 
L 154.7436 69.251175 
L 156.5334 67.037258 
L 158.3232 69.819685 
L 160.113 65.901584 
L 161.9028 65.292102 
L 163.6926 67.68569 
L 165.4824 63.59806 
L 167.2722 66.117092 
L 169.062 66.490038 
L 170.8518 62.803398 
L 172.6416 63.117349 
L 174.4314 61.757395 
L 176.2212 59.791962 
L 178.011 65.758142 
L 179.8008 63.807989 
L 181.5906 62.253234 
L 183.3804 65.53031 
L 185.1702 66.068669 
L 186.96 65.218802 
L 188.7498 60.047111 
L 190.5396 58.935441 
L 192.3294 62.358872 
L 194.1192 64.24707 
L 195.909 61.03674 
L 197.6988 61.426029 
L 199.4886 62.784673 
L 201.2784 62.646108 
L 203.0682 57.929314 
L 204.858 58.854714 
L 206.6478 60.240217 
L 208.4376 57.437751 
L 210.2274 54.643807 
L 212.0172 55.721882 
L 213.807 62.371106 
L 215.5968 61.764626 
L 217.3866 62.156497 
L 219.1764 60.209444 
L 220.9662 60.572787 
L 222.756 58.824342 
L 224.5458 61.444344 
L 226.3356 57.148852 
L 228.1254 52.792016 
L 229.9152 51.371323 
L 231.705 55.467354 
L 233.4948 55.535515 
L 235.2846 53.774789 
L 237.0744 56.136869 
L 238.8642 54.51234 
L 240.654 56.862683 
L 242.4438 59.627742 
L 244.2336 59.551693 
L 246.0234 59.325818 
L 247.8132 58.372265 
L 249.603 61.526836 
L 251.3928 59.334605 
L 253.1826 59.359943 
L 254.9724 60.846454 
L 256.7622 57.362406 
L 258.552 57.34987 
" clip-path="url(#p55b3cacafc)" style="fill: none; stroke: #6356a5; stroke-width: 1.9; stroke-linecap: round"/>
   </g>
   <g id="patch_3">
    <path d="M 43.776 178.56 
L 43.776 42.408 
" style="fill: none; stroke: #cfd5df; stroke-width: 0.7; stroke-linejoin: miter; stroke-linecap: square"/>
   </g>
   <g id="patch_4">
    <path d="M 43.776 178.56 
L 258.552 178.56 
" style="fill: none; stroke: #cfd5df; stroke-width: 0.7; stroke-linejoin: miter; stroke-linecap: square"/>
   </g>
  </g>
  <g id="text_12">
   <text style="fill: #26313d; font: 500 11px 'Helvetica Neue', 'Arial', 'DejaVu Sans', sans-serif; text-anchor: start" x="43.776" y="15.624" transform="rotate(-0 43.776 15.624)">Online post-training</text>
  </g>
  <g id="text_13">
   <text style="fill: #7a8491; font: 9px 'Helvetica Neue', 'Arial', 'DejaVu Sans', sans-serif; text-anchor: start" x="43.776" y="30.132" transform="rotate(-0 43.776 30.132)">Illustrative trajectory · not measured</text>
  </g>
 </g>
 <defs>
  <clipPath id="p55b3cacafc">
   <rect x="43.776" y="42.408" width="214.776" height="136.152"/>
  </clipPath>
 </defs>
</svg>
