<?xml version="1.0" encoding="utf-8" standalone="no"?>
<!DOCTYPE svg PUBLIC "-//W3C//DTD SVG 1.1//EN"
  "http://www.w3.org/Graphics/SVG/1.1/DTD/svg11.dtd">
<svg xmlns:xlink="http://www.w3.org/1999/xlink" width="576pt" height="259.2pt" viewBox="0 0 576 259.2" xmlns="http://www.w3.org/2000/svg" version="1.1">
 <title>Preserve expert information and student preferences</title>
 <metadata>
  <rdf:RDF xmlns:dc="http://purl.org/dc/elements/1.1/" xmlns:cc="http://creativecommons.org/ns#" xmlns:rdf="http://www.w3.org/1999/02/22-rdf-syntax-ns#">
   <cc:Work>
    <dc:type rdf:resource="http://purl.org/dc/dcmitype/StillImage"/>
    <dc:title>Preserve expert information and student preferences</dc:title>
    <dc:date>2026-10-05T02:54:59.775377</dc:date>
    <dc:description>Illustration, not measured results. Student and expert response distributions differ. Shading marks responses that meet the expert semantic constraints. New training data preserves the student relative preferences within that set.</dc:description>
    <dc:format>image/svg+xml</dc:format>
    <dc:creator>
     <cc:Agent>
      <dc:title>Matplotlib v3.10.6, https://matplotlib.org/</dc:title>
     </cc:Agent>
    </dc:creator>
   </cc:Work>
  </rdf:RDF>
 </metadata>
 <defs>
  <style type="text/css">*{stroke-linejoin: round; stroke-linecap: butt}</style>
 </defs>
 <g id="figure_1">
  <g id="patch_1">
   <path d="M 0 259.2
L 576 259.2
L 576 0
L 0 0
z
" style="fill: #ffffff"/>
  </g>
  <g id="axes_1">
   <g id="patch_2">
    <path d="M 43.2 209.952
L 279.677064 209.952
L 279.677064 69.984
L 43.2 69.984
z
" style="fill: #ffffff"/>
   </g>
   <g id="patch_3">
    <path d="M 156.708991 209.952
L 279.677064 209.952
L 279.677064 69.984
L 156.708991 69.984
z
" clip-path="url(#p70654d7d34)" style="fill: #edf6f3; stroke: #edf6f3; stroke-linejoin: miter"/>
   </g>
   <g id="FillBetweenPolyCollection_1">
    <defs>
     <path id="me62a9f7658" d="M 43.2 -49.248
L 43.2 -49.634357
L 43.791193 -49.675703
L 44.382385 -49.720947
L 44.973578 -49.770397
L 45.564771 -49.824377
L 46.155963 -49.883228
L 46.747156 -49.94731
L 47.338349 -50.017003
L 47.929541 -50.092702
L 48.520734 -50.174822
L 49.111927 -50.263796
L 49.703119 -50.360076
L 50.294312 -50.464129
L 50.885505 -50.576441
L 51.476697 -50.697514
L 52.06789 -50.827865
L 52.659083 -50.968026
L 53.250275 -51.118542
L 53.841468 -51.279971
L 54.432661 -51.452879
L 55.023853 -51.637845
L 55.615046 -51.83545
L 56.206239 -52.046283
L 56.797431 -52.270936
L 57.388624 -52.509997
L 57.979817 -52.764055
L 58.571009 -53.033691
L 59.162202 -53.319478
L 59.753394 -53.621978
L 60.344587 -53.941734
L 60.93578 -54.279272
L 61.526972 -54.635094
L 62.118165 -55.009676
L 62.709358 -55.40346
L 63.30055 -55.816855
L 63.891743 -56.250228
L 64.482936 -56.703904
L 65.074128 -57.178157
L 65.665321 -57.67321
L 66.256514 -58.189227
L 66.847706 -58.726311
L 67.438899 -59.284499
L 68.030092 -59.863758
L 68.621284 -60.463979
L 69.212477 -61.084978
L 69.80367 -61.726488
L 70.394862 -62.388155
L 70.986055 -63.069542
L 71.577248 -63.770118
L 72.16844 -64.489259
L 72.759633 -65.226249
L 73.350826 -65.980275
L 73.942018 -66.750426
L 74.533211 -67.535694
L 75.124404 -68.334975
L 75.715596 -69.147067
L 76.306789 -69.970673
L 76.897982 -70.804402
L 77.489174 -71.646773
L 78.080367 -72.496216
L 78.67156 -73.351077
L 79.262752 -74.209621
L 79.853945 -75.07004
L 80.445138 -75.930453
L 81.03633 -76.788918
L 81.627523 -77.643435
L 82.218716 -78.491954
L 82.809908 -79.332382
L 83.401101 -80.162595
L 83.992294 -80.98044
L 84.583486 -81.783751
L 85.174679 -82.570352
L 85.765872 -83.338071
L 86.357064 -84.084749
L 86.948257 -84.808248
L 87.53945 -85.506464
L 88.130642 -86.177333
L 88.721835 -86.818847
L 89.313028 -87.429057
L 89.90422 -88.00609
L 90.495413 -88.548152
L 91.086606 -89.053543
L 91.677798 -89.52066
L 92.268991 -89.948012
L 92.860183 -90.334222
L 93.451376 -90.678038
L 94.042569 -90.978338
L 94.633761 -91.234137
L 95.224954 -91.444594
L 95.816147 -91.609011
L 96.407339 -91.726844
L 96.998532 -91.797701
L 97.589725 -91.821347
L 98.180917 -91.797701
L 98.77211 -91.726844
L 99.363303 -91.609011
L 99.954495 -91.444594
L 100.545688 -91.234137
L 101.136881 -90.978338
L 101.728073 -90.678038
L 102.319266 -90.334222
L 102.910459 -89.948012
L 103.501651 -89.52066
L 104.092844 -89.053543
L 104.684037 -88.548152
L 105.275229 -88.00609
L 105.866422 -87.429057
L 106.457615 -86.818847
L 107.048807 -86.177333
L 107.64 -85.506464
L 108.231193 -84.808248
L 108.822385 -84.084749
L 109.413578 -83.338071
L 110.004771 -82.570352
L 110.595963 -81.783751
L 111.187156 -80.98044
L 111.778349 -80.162595
L 112.369541 -79.332382
L 112.960734 -78.491954
L 113.551927 -77.643435
L 114.143119 -76.788918
L 114.734312 -75.930453
L 115.325505 -75.07004
L 115.916697 -74.209622
L 116.50789 -73.351077
L 117.099083 -72.496216
L 117.690275 -71.646773
L 118.281468 -70.804403
L 118.872661 -69.970674
L 119.463853 -69.147068
L 120.055046 -68.334977
L 120.646239 -67.535697
L 121.237431 -66.750429
L 121.828624 -65.980279
L 122.419817 -65.226255
L 123.011009 -64.489266
L 123.602202 -63.770126
L 124.193394 -63.069553
L 124.784587 -62.388169
L 125.37578 -61.726505
L 125.966972 -61.085001
L 126.558165 -60.464008
L 127.149358 -59.863794
L 127.74055 -59.284545
L 128.331743 -58.726368
L 128.922936 -58.189299
L 129.514128 -57.6733
L 130.105321 -57.17827
L 130.696514 -56.704045
L 131.287706 -56.250405
L 131.878899 -55.817075
L 132.470092 -55.403734
L 133.061284 -55.010016
L 133.652477 -54.635515
L 134.24367 -54.279792
L 134.834862 -53.942375
L 135.426055 -53.622767
L 136.017248 -53.320448
L 136.60844 -53.034879
L 137.199633 -52.765508
L 137.790826 -52.51177
L 138.382018 -52.273096
L 138.973211 -52.04891
L 139.564404 -51.838636
L 140.155596 -51.641702
L 140.746789 -51.457539
L 141.337982 -51.285588
L 141.929174 -51.125301
L 142.520367 -50.976141
L 143.11156 -50.837588
L 143.702752 -50.709139
L 144.293945 -50.590312
L 144.885138 -50.480646
L 145.47633 -50.379703
L 146.067523 -50.287072
L 146.658716 -50.202366
L 147.249908 -50.12523
L 147.841101 -50.055338
L 148.432294 -49.992395
L 149.023486 -49.936142
L 149.614679 -49.886351
L 150.205872 -49.842834
L 150.797064 -49.805438
L 151.388257 -49.77405
L 151.97945 -49.748596
L 152.570642 -49.729047
L 153.161835 -49.715412
L 153.753028 -49.707747
L 154.34422 -49.706152
L 154.935413 -49.710774
L 155.526606 -49.721806
L 156.117798 -49.739486
L 156.708991 -49.764105
L 157.300183 -49.795996
L 157.891376 -49.835544
L 158.482569 -49.88318
L 159.073761 -49.939382
L 159.664954 -50.004673
L 160.256147 -50.079621
L 160.847339 -50.164835
L 161.438532 -50.260964
L 162.029725 -50.368691
L 162.620917 -50.488734
L 163.21211 -50.621837
L 163.803303 -50.768765
L 164.394495 -50.930303
L 164.985688 -51.107242
L 165.576881 -51.300379
L 166.168073 -51.510502
L 166.759266 -51.738389
L 167.350459 -51.984789
L 167.941651 -52.250422
L 168.532844 -52.535961
L 169.124037 -52.842024
L 169.715229 -53.169161
L 170.306422 -53.517846
L 170.897615 -53.888458
L 171.488807 -54.281277
L 172.08 -54.696466
L 172.671193 -55.134063
L 173.262385 -55.593966
L 173.853578 -56.075927
L 174.444771 -56.57954
L 175.035963 -57.104229
L 175.627156 -57.649248
L 176.218349 -58.213665
L 176.809541 -58.796365
L 177.400734 -59.396045
L 177.991927 -60.011207
L 178.583119 -60.640168
L 179.174312 -61.281055
L 179.765505 -61.931813
L 180.356697 -62.590212
L 180.94789 -63.253856
L 181.539083 -63.920195
L 182.130275 -64.586537
L 182.721468 -65.250067
L 183.312661 -65.907862
L 183.903853 -66.556913
L 184.495046 -67.194146
L 185.086239 -67.816447
L 185.677431 -68.420681
L 186.268624 -69.003726
L 186.859817 -69.562492
L 187.451009 -70.093953
L 188.042202 -70.595172
L 188.633394 -71.063327
L 189.224587 -71.495738
L 189.81578 -71.889894
L 190.406972 -72.243476
L 190.998165 -72.55438
L 191.589358 -72.820736
L 192.18055 -73.04093
L 192.771743 -73.213618
L 193.362936 -73.337741
L 193.954128 -73.412534
L 194.545321 -73.437538
L 195.136514 -73.4126
L 195.727706 -73.337876
L 196.318899 -73.213834
L 196.910092 -73.041242
L 197.501284 -72.821166
L 198.092477 -72.554958
L 198.68367 -72.244242
L 199.274862 -71.890898
L 199.866055 -71.497044
L 200.457248 -71.065017
L 201.04844 -70.59735
L 201.639633 -70.096746
L 202.230826 -69.56606
L 202.822018 -69.008266
L 203.413211 -68.426437
L 204.004404 -67.823718
L 204.595596 -67.203299
L 205.186789 -66.568392
L 205.777982 -65.922208
L 206.369174 -65.267933
L 206.960367 -64.608709
L 207.55156 -63.947614
L 208.142752 -63.287647
L 208.733945 -62.63171
L 209.325138 -61.982599
L 209.91633 -61.342994
L 210.507523 -60.715449
L 211.098716 -60.102388
L 211.689908 -59.506106
L 212.281101 -58.92876
L 212.872294 -58.372379
L 213.463486 -57.838863
L 214.054679 -57.329988
L 214.645872 -56.847413
L 215.237064 -56.392687
L 215.828257 -55.967255
L 216.41945 -55.572471
L 217.010642 -55.2096
L 217.601835 -54.879827
L 218.193028 -54.584267
L 218.78422 -54.323964
L 219.375413 -54.099899
L 219.966606 -53.912992
L 220.557798 -53.764095
L 221.148991 -53.653997
L 221.740183 -53.583413
L 222.331376 -53.552973
L 222.922569 -53.563216
L 223.513761 -53.614573
L 224.104954 -53.707348
L 224.696147 -53.841702
L 225.287339 -54.017629
L 225.878532 -54.234933
L 226.469725 -54.493207
L 227.060917 -54.791805
L 227.65211 -55.12982
L 228.243303 -55.506058
L 228.834495 -55.919021
L 229.425688 -56.366885
L 230.016881 -56.847487
L 230.608073 -57.358313
L 231.199266 -57.896491
L 231.790459 -58.458794
L 232.381651 -59.041643
L 232.972844 -59.641123
L 233.564037 -60.253001
L 234.155229 -60.872753
L 234.746422 -61.495602
L 235.337615 -62.116555
L 235.928807 -62.730455
L 236.52 -63.332033
L 237.111193 -63.915968
L 237.702385 -64.476953
L 238.293578 -65.009759
L 238.884771 -65.509303
L 239.475963 -65.970721
L 240.067156 -66.389436
L 240.658349 -66.761219
L 241.249541 -67.082259
L 241.840734 -67.349214
L 242.431927 -67.559265
L 243.023119 -67.710158
L 243.614312 -67.800238
L 244.205505 -67.828477
L 244.796697 -67.794482
L 245.38789 -67.698508
L 245.979083 -67.541444
L 246.570275 -67.324801
L 247.161468 -67.050683
L 247.752661 -66.721752
L 248.343853 -66.341181
L 248.935046 -65.912604
L 249.526239 -65.440052
L 250.117431 -64.927894
L 250.708624 -64.380767
L 251.299817 -63.803502
L 251.891009 -63.201059
L 252.482202 -62.578451
L 253.073394 -61.940678
L 253.664587 -61.292658
L 254.25578 -60.639171
L 254.846972 -59.984801
L 255.438165 -59.333882
L 256.029358 -58.690463
L 256.62055 -58.058267
L 257.211743 -57.440664
L 257.802936 -56.840652
L 258.394128 -56.260842
L 258.985321 -55.703454
L 259.576514 -55.170317
L 260.167706 -54.662878
L 260.758899 -54.182212
L 261.350092 -53.729042
L 261.941284 -53.303761
L 262.532477 -52.906455
L 263.12367 -52.536934
L 263.714862 -52.194759
L 264.306055 -51.879275
L 264.897248 -51.589638
L 265.48844 -51.324851
L 266.079633 -51.08379
L 266.670826 -50.865233
L 267.262018 -50.667889
L 267.853211 -50.490419
L 268.444404 -50.331462
L 269.035596 -50.189654
L 269.626789 -50.063645
L 270.217982 -49.952114
L 270.809174 -49.853782
L 271.400367 -49.767424
L 271.99156 -49.691874
L 272.582752 -49.626033
L 273.173945 -49.568872
L 273.765138 -49.519435
L 274.35633 -49.476839
L 274.947523 -49.440278
L 275.538716 -49.409012
L 276.129908 -49.382376
L 276.721101 -49.359767
L 277.312294 -49.340649
L 277.903486 -49.324542
L 278.494679 -49.311021
L 279.085872 -49.299714
L 279.677064 -49.290292
L 279.677064 -49.248
L 279.677064 -49.248
L 279.085872 -49.248
L 278.494679 -49.248
L 277.903486 -49.248
L 277.312294 -49.248
L 276.721101 -49.248
L 276.129908 -49.248
L 275.538716 -49.248
L 274.947523 -49.248
L 274.35633 -49.248
L 273.765138 -49.248
L 273.173945 -49.248
L 272.582752 -49.248
L 271.99156 -49.248
L 271.400367 -49.248
L 270.809174 -49.248
L 270.217982 -49.248
L 269.626789 -49.248
L 269.035596 -49.248
L 268.444404 -49.248
L 267.853211 -49.248
L 267.262018 -49.248
L 266.670826 -49.248
L 266.079633 -49.248
L 265.48844 -49.248
L 264.897248 -49.248
L 264.306055 -49.248
L 263.714862 -49.248
L 263.12367 -49.248
L 262.532477 -49.248
L 261.941284 -49.248
L 261.350092 -49.248
L 260.758899 -49.248
L 260.167706 -49.248
L 259.576514 -49.248
L 258.985321 -49.248
L 258.394128 -49.248
L 257.802936 -49.248
L 257.211743 -49.248
L 256.62055 -49.248
L 256.029358 -49.248
L 255.438165 -49.248
L 254.846972 -49.248
L 254.25578 -49.248
L 253.664587 -49.248
L 253.073394 -49.248
L 252.482202 -49.248
L 251.891009 -49.248
L 251.299817 -49.248
L 250.708624 -49.248
L 250.117431 -49.248
L 249.526239 -49.248
L 248.935046 -49.248
L 248.343853 -49.248
L 247.752661 -49.248
L 247.161468 -49.248
L 246.570275 -49.248
L 245.979083 -49.248
L 245.38789 -49.248
L 244.796697 -49.248
L 244.205505 -49.248
L 243.614312 -49.248
L 243.023119 -49.248
L 242.431927 -49.248
L 241.840734 -49.248
L 241.249541 -49.248
L 240.658349 -49.248
L 240.067156 -49.248
L 239.475963 -49.248
L 238.884771 -49.248
L 238.293578 -49.248
L 237.702385 -49.248
L 237.111193 -49.248
L 236.52 -49.248
L 235.928807 -49.248
L 235.337615 -49.248
L 234.746422 -49.248
L 234.155229 -49.248
L 233.564037 -49.248
L 232.972844 -49.248
L 232.381651 -49.248
L 231.790459 -49.248
L 231.199266 -49.248
L 230.608073 -49.248
L 230.016881 -49.248
L 229.425688 -49.248
L 228.834495 -49.248
L 228.243303 -49.248
L 227.65211 -49.248
L 227.060917 -49.248
L 226.469725 -49.248
L 225.878532 -49.248
L 225.287339 -49.248
L 224.696147 -49.248
L 224.104954 -49.248
L 223.513761 -49.248
L 222.922569 -49.248
L 222.331376 -49.248
L 221.740183 -49.248
L 221.148991 -49.248
L 220.557798 -49.248
L 219.966606 -49.248
L 219.375413 -49.248
L 218.78422 -49.248
L 218.193028 -49.248
L 217.601835 -49.248
L 217.010642 -49.248
L 216.41945 -49.248
L 215.828257 -49.248
L 215.237064 -49.248
L 214.645872 -49.248
L 214.054679 -49.248
L 213.463486 -49.248
L 212.872294 -49.248
L 212.281101 -49.248
L 211.689908 -49.248
L 211.098716 -49.248
L 210.507523 -49.248
L 209.91633 -49.248
L 209.325138 -49.248
L 208.733945 -49.248
L 208.142752 -49.248
L 207.55156 -49.248
L 206.960367 -49.248
L 206.369174 -49.248
L 205.777982 -49.248
L 205.186789 -49.248
L 204.595596 -49.248
L 204.004404 -49.248
L 203.413211 -49.248
L 202.822018 -49.248
L 202.230826 -49.248
L 201.639633 -49.248
L 201.04844 -49.248
L 200.457248 -49.248
L 199.866055 -49.248
L 199.274862 -49.248
L 198.68367 -49.248
L 198.092477 -49.248
L 197.501284 -49.248
L 196.910092 -49.248
L 196.318899 -49.248
L 195.727706 -49.248
L 195.136514 -49.248
L 194.545321 -49.248
L 193.954128 -49.248
L 193.362936 -49.248
L 192.771743 -49.248
L 192.18055 -49.248
L 191.589358 -49.248
L 190.998165 -49.248
L 190.406972 -49.248
L 189.81578 -49.248
L 189.224587 -49.248
L 188.633394 -49.248
L 188.042202 -49.248
L 187.451009 -49.248
L 186.859817 -49.248
L 186.268624 -49.248
L 185.677431 -49.248
L 185.086239 -49.248
L 184.495046 -49.248
L 183.903853 -49.248
L 183.312661 -49.248
L 182.721468 -49.248
L 182.130275 -49.248
L 181.539083 -49.248
L 180.94789 -49.248
L 180.356697 -49.248
L 179.765505 -49.248
L 179.174312 -49.248
L 178.583119 -49.248
L 177.991927 -49.248
L 177.400734 -49.248
L 176.809541 -49.248
L 176.218349 -49.248
L 175.627156 -49.248
L 175.035963 -49.248
L 174.444771 -49.248
L 173.853578 -49.248
L 173.262385 -49.248
L 172.671193 -49.248
L 172.08 -49.248
L 171.488807 -49.248
L 170.897615 -49.248
L 170.306422 -49.248
L 169.715229 -49.248
L 169.124037 -49.248
L 168.532844 -49.248
L 167.941651 -49.248
L 167.350459 -49.248
L 166.759266 -49.248
L 166.168073 -49.248
L 165.576881 -49.248
L 164.985688 -49.248
L 164.394495 -49.248
L 163.803303 -49.248
L 163.21211 -49.248
L 162.620917 -49.248
L 162.029725 -49.248
L 161.438532 -49.248
L 160.847339 -49.248
L 160.256147 -49.248
L 159.664954 -49.248
L 159.073761 -49.248
L 158.482569 -49.248
L 157.891376 -49.248
L 157.300183 -49.248
L 156.708991 -49.248
L 156.117798 -49.248
L 155.526606 -49.248
L 154.935413 -49.248
L 154.34422 -49.248
L 153.753028 -49.248
L 153.161835 -49.248
L 152.570642 -49.248
L 151.97945 -49.248
L 151.388257 -49.248
L 150.797064 -49.248
L 150.205872 -49.248
L 149.614679 -49.248
L 149.023486 -49.248
L 148.432294 -49.248
L 147.841101 -49.248
L 147.249908 -49.248
L 146.658716 -49.248
L 146.067523 -49.248
L 145.47633 -49.248
L 144.885138 -49.248
L 144.293945 -49.248
L 143.702752 -49.248
L 143.11156 -49.248
L 142.520367 -49.248
L 141.929174 -49.248
L 141.337982 -49.248
L 140.746789 -49.248
L 140.155596 -49.248
L 139.564404 -49.248
L 138.973211 -49.248
L 138.382018 -49.248
L 137.790826 -49.248
L 137.199633 -49.248
L 136.60844 -49.248
L 136.017248 -49.248
L 135.426055 -49.248
L 134.834862 -49.248
L 134.24367 -49.248
L 133.652477 -49.248
L 133.061284 -49.248
L 132.470092 -49.248
L 131.878899 -49.248
L 131.287706 -49.248
L 130.696514 -49.248
L 130.105321 -49.248
L 129.514128 -49.248
L 128.922936 -49.248
L 128.331743 -49.248
L 127.74055 -49.248
L 127.149358 -49.248
L 126.558165 -49.248
L 125.966972 -49.248
L 125.37578 -49.248
L 124.784587 -49.248
L 124.193394 -49.248
L 123.602202 -49.248
L 123.011009 -49.248
L 122.419817 -49.248
L 121.828624 -49.248
L 121.237431 -49.248
L 120.646239 -49.248
L 120.055046 -49.248
L 119.463853 -49.248
L 118.872661 -49.248
L 118.281468 -49.248
L 117.690275 -49.248
L 117.099083 -49.248
L 116.50789 -49.248
L 115.916697 -49.248
L 115.325505 -49.248
L 114.734312 -49.248
L 114.143119 -49.248
L 113.551927 -49.248
L 112.960734 -49.248
L 112.369541 -49.248
L 111.778349 -49.248
L 111.187156 -49.248
L 110.595963 -49.248
L 110.004771 -49.248
L 109.413578 -49.248
L 108.822385 -49.248
L 108.231193 -49.248
L 107.64 -49.248
L 107.048807 -49.248
L 106.457615 -49.248
L 105.866422 -49.248
L 105.275229 -49.248
L 104.684037 -49.248
L 104.092844 -49.248
L 103.501651 -49.248
L 102.910459 -49.248
L 102.319266 -49.248
L 101.728073 -49.248
L 101.136881 -49.248
L 100.545688 -49.248
L 99.954495 -49.248
L 99.363303 -49.248
L 98.77211 -49.248
L 98.180917 -49.248
L 97.589725 -49.248
L 96.998532 -49.248
L 96.407339 -49.248
L 95.816147 -49.248
L 95.224954 -49.248
L 94.633761 -49.248
L 94.042569 -49.248
L 93.451376 -49.248
L 92.860183 -49.248
L 92.268991 -49.248
L 91.677798 -49.248
L 91.086606 -49.248
L 90.495413 -49.248
L 89.90422 -49.248
L 89.313028 -49.248
L 88.721835 -49.248
L 88.130642 -49.248
L 87.53945 -49.248
L 86.948257 -49.248
L 86.357064 -49.248
L 85.765872 -49.248
L 85.174679 -49.248
L 84.583486 -49.248
L 83.992294 -49.248
L 83.401101 -49.248
L 82.809908 -49.248
L 82.218716 -49.248
L 81.627523 -49.248
L 81.03633 -49.248
L 80.445138 -49.248
L 79.853945 -49.248
L 79.262752 -49.248
L 78.67156 -49.248
L 78.080367 -49.248
L 77.489174 -49.248
L 76.897982 -49.248
L 76.306789 -49.248
L 75.715596 -49.248
L 75.124404 -49.248
L 74.533211 -49.248
L 73.942018 -49.248
L 73.350826 -49.248
L 72.759633 -49.248
L 72.16844 -49.248
L 71.577248 -49.248
L 70.986055 -49.248
L 70.394862 -49.248
L 69.80367 -49.248
L 69.212477 -49.248
L 68.621284 -49.248
L 68.030092 -49.248
L 67.438899 -49.248
L 66.847706 -49.248
L 66.256514 -49.248
L 65.665321 -49.248
L 65.074128 -49.248
L 64.482936 -49.248
L 63.891743 -49.248
L 63.30055 -49.248
L 62.709358 -49.248
L 62.118165 -49.248
L 61.526972 -49.248
L 60.93578 -49.248
L 60.344587 -49.248
L 59.753394 -49.248
L 59.162202 -49.248
L 58.571009 -49.248
L 57.979817 -49.248
L 57.388624 -49.248
L 56.797431 -49.248
L 56.206239 -49.248
L 55.615046 -49.248
L 55.023853 -49.248
L 54.432661 -49.248
L 53.841468 -49.248
L 53.250275 -49.248
L 52.659083 -49.248
L 52.06789 -49.248
L 51.476697 -49.248
L 50.885505 -49.248
L 50.294312 -49.248
L 49.703119 -49.248
L 49.111927 -49.248
L 48.520734 -49.248
L 47.929541 -49.248
L 47.338349 -49.248
L 46.747156 -49.248
L 46.155963 -49.248
L 45.564771 -49.248
L 44.973578 -49.248
L 44.382385 -49.248
L 43.791193 -49.248
L 43.2 -49.248
z
" style="stroke: #3e73a8; stroke-opacity: 0.06"/>
    </defs>
    <g clip-path="url(#p70654d7d34)">
     <use xlink:href="#me62a9f7658" x="0" y="259.2" style="fill: #3e73a8; fill-opacity: 0.06; stroke: #3e73a8; stroke-opacity: 0.06"/>
    </g>
   </g>
   <g id="matplotlib.axis_1">
    <g id="text_1">
     <text style="font-size: 10px; font-family: 'Helvetica Neue', 'Arial', 'DejaVu Sans', sans-serif; text-anchor: middle; fill: #525a65" x="161.438532" y="226.092625" transform="rotate(-0 161.438532 226.092625)">Possible responses</text>
    </g>
   </g>
   <g id="matplotlib.axis_2"/>
   <g id="line2d_1">
    <path d="M 156.708991 209.952
L 156.708991 69.984
" clip-path="url(#p70654d7d34)" style="fill: none; stroke-dasharray: 2.4,2.4; stroke-dashoffset: 0; stroke: #2b8b88; stroke-opacity: 0.7; stroke-width: 0.8"/>
   </g>
   <g id="line2d_2">
    <path d="M 43.2 209.565643
L 47.338349 209.182997
L 50.885505 208.623559
L 53.841468 207.920029
L 56.206239 207.153717
L 58.571009 206.166309
L 60.93578 204.920728
L 63.30055 203.383145
L 65.665321 201.52679
L 68.030092 199.336242
L 70.394862 196.811845
L 72.759633 193.973751
L 75.715596 190.052933
L 79.853945 184.12996
L 84.583486 177.416249
L 86.948257 174.391752
L 88.721835 172.381153
L 90.495413 170.651848
L 92.268991 169.251988
L 94.042569 168.221662
L 95.224954 167.755406
L 96.407339 167.473156
L 97.589725 167.378653
L 98.77211 167.473156
L 99.954495 167.755406
L 101.136881 168.221662
L 102.319266 168.865778
L 104.092844 170.146457
L 105.866422 171.770943
L 107.64 173.693536
L 110.004771 176.629648
L 112.960734 180.708046
L 121.237431 192.449571
L 124.193394 196.130447
L 126.558165 198.735992
L 128.922936 201.010701
L 131.287706 202.949595
L 133.652477 204.564485
L 136.017248 205.879552
L 138.382018 206.926904
L 140.746789 207.742461
L 143.702752 208.490861
L 146.658716 208.997634
L 150.205872 209.357166
L 153.753028 209.492253
L 157.300183 209.404004
L 160.256147 209.120379
L 162.620917 208.711266
L 164.985688 208.092758
L 167.350459 207.215211
L 169.124037 206.357976
L 170.897615 205.311542
L 172.671193 204.065937
L 175.035963 202.095771
L 177.400734 199.803955
L 180.356697 196.609788
L 185.677431 190.779319
L 187.451009 189.106047
L 189.224587 187.704262
L 190.998165 186.64562
L 192.18055 186.15907
L 193.362936 185.862259
L 194.545321 185.762462
L 195.727706 185.862124
L 196.910092 186.158758
L 198.092477 186.645042
L 199.274862 187.309102
L 201.04844 188.60265
L 202.822018 190.191734
L 205.186789 192.631608
L 212.281101 200.27124
L 214.645872 202.352587
L 216.41945 203.627529
L 218.193028 204.615733
L 219.966606 205.287008
L 221.148991 205.546003
L 222.331376 205.647027
L 223.513761 205.585427
L 224.696147 205.358298
L 225.878532 204.965067
L 227.65211 204.07018
L 229.425688 202.833115
L 231.199266 201.303509
L 233.564037 198.946999
L 237.702385 194.723047
L 239.475963 193.229279
L 240.658349 192.438781
L 241.840734 191.850786
L 243.023119 191.489842
L 244.205505 191.371523
L 245.38789 191.501492
L 246.570275 191.875199
L 247.752661 192.478248
L 248.935046 193.287396
L 250.708624 194.819233
L 253.073394 197.259322
L 258.394128 202.939158
L 260.758899 205.017788
L 262.532477 206.293545
L 264.306055 207.320725
L 266.079633 208.11621
L 267.853211 208.709581
L 270.217982 209.247886
L 273.173945 209.631128
L 276.721101 209.840233
L 279.677064 209.909708
L 279.677064 209.909708
" clip-path="url(#p70654d7d34)" style="fill: none; stroke: #3e73a8; stroke-width: 1.5; stroke-linecap: square"/>
   </g>
   <g id="line2d_3">
    <path d="M 43.2 209.952
L 201.639633 209.853992
L 205.186789 209.650703
L 207.55156 209.348623
L 209.325138 208.96478
L 211.098716 208.375711
L 212.872294 207.495848
L 214.054679 206.695302
L 215.237064 205.680431
L 216.41945 204.409765
L 217.601835 202.838717
L 218.78422 200.920855
L 219.966606 198.609648
L 221.148991 195.8607
L 222.331376 192.634444
L 223.513761 188.899206
L 225.287339 182.301136
L 227.060917 174.511097
L 228.834495 165.621976
L 231.199266 152.435098
L 236.52 121.776871
L 238.293578 113.126327
L 239.475963 108.281184
L 240.658349 104.345731
L 241.840734 101.441768
L 242.431927 100.406627
L 243.023119 99.6612
L 243.614312 99.211511
L 244.205505 99.061208
L 244.796697 99.211511
L 245.38789 99.6612
L 245.979083 100.406627
L 246.570275 101.441768
L 247.752661 104.345731
L 248.935046 108.281184
L 250.117431 113.126327
L 251.891009 121.776871
L 254.25578 135.021237
L 258.985321 162.446982
L 260.758899 171.66242
L 262.532477 179.834506
L 264.306055 186.833792
L 266.079633 192.634444
L 267.262018 195.8607
L 268.444404 198.609648
L 269.626789 200.920855
L 270.809174 202.838717
L 271.99156 204.409765
L 273.173945 205.680431
L 274.35633 206.695302
L 275.538716 207.495848
L 277.312294 208.375711
L 279.085872 208.96478
L 279.677064 209.111927
L 279.677064 209.111927
" clip-path="url(#p70654d7d34)" style="fill: none; stroke: #ba8b51; stroke-width: 1.9; stroke-linecap: square"/>
   </g>
   <g id="patch_4">
    <path d="M 43.2 209.952
L 279.677064 209.952
" style="fill: none; stroke: #cdd3dd; stroke-width: 0.8; stroke-linejoin: miter; stroke-linecap: square"/>
   </g>
   <g id="text_2">
    <text style="font-size: 10px; font-family: 'Helvetica Neue', 'Arial', 'DejaVu Sans', sans-serif; fill: #2b8b88" transform="translate(187.655955 75.44128)">Meets expert</text>
    <text style="font-size: 10px; font-family: 'Helvetica Neue', 'Arial', 'DejaVu Sans', sans-serif; fill: #2b8b88" transform="translate(170.610642 85.980343)">semantic constraints</text>
   </g>
   <g id="text_3">
    <text style="font-size: 9px; font-family: 'Helvetica Neue', 'Arial', 'DejaVu Sans', sans-serif; fill: #87909b" transform="translate(69.099532 76.495187)">Outside expert</text>
    <text style="font-size: 9px; font-family: 'Helvetica Neue', 'Arial', 'DejaVu Sans', sans-serif; fill: #87909b" transform="translate(57.01211 85.980343)">semantic constraints</text>
   </g>
   <g id="text_4">
    <text style="font-weight: 500; font-size: 12px; font-family: 'Helvetica Neue', 'Arial', 'DejaVu Sans', sans-serif; text-anchor: start; fill: #20252c" x="43.2" y="27.984" transform="rotate(-0 43.2 27.984)">1  Before: different preferences</text>
   </g>
   <g id="legend_1">
    <g id="line2d_4">
     <path d="M 47 55.388483
L 56.5 55.388483
L 66 55.388483
" style="fill: none; stroke: #3e73a8; stroke-width: 1.5; stroke-linecap: square"/>
    </g>
    <g id="text_5">
     <text style="font-size: 9.5px; font-family: 'Helvetica Neue', 'Arial', 'DejaVu Sans', sans-serif; text-anchor: start; fill: #20252c" x="73.6" y="58.713483" transform="rotate(-0 73.6 58.713483)">Student model</text>
    </g>
    <g id="line2d_5">
     <path d="M 149.380313 55.388483
L 158.880313 55.388483
L 168.380313 55.388483
" style="fill: none; stroke: #ba8b51; stroke-width: 1.9; stroke-linecap: square"/>
    </g>
    <g id="text_6">
     <text style="font-size: 9.5px; font-family: 'Helvetica Neue', 'Arial', 'DejaVu Sans', sans-serif; text-anchor: start; fill: #20252c" x="175.980312" y="58.713483" transform="rotate(-0 175.980312 58.713483)">Expert responses</text>
    </g>
   </g>
  </g>
  <g id="axes_2">
   <g id="patch_5">
    <path d="M 322.242936 209.952
L 558.72 209.952
L 558.72 69.984
L 322.242936 69.984
z
" style="fill: #ffffff"/>
   </g>
   <g id="patch_6">
    <path d="M 435.751927 209.952
L 558.72 209.952
L 558.72 69.984
L 435.751927 69.984
z
" clip-path="url(#p456277547c)" style="fill: #edf6f3; stroke: #edf6f3; stroke-linejoin: miter"/>
   </g>
   <g id="FillBetweenPolyCollection_2">
    <defs>
     <path id="m60a4723d8b" d="M 322.242936 -49.248
L 322.242936 -49.248
L 322.834128 -49.248
L 323.425321 -49.248
L 324.016514 -49.248
L 324.607706 -49.248
L 325.198899 -49.248
L 325.790092 -49.248
L 326.381284 -49.248
L 326.972477 -49.248
L 327.56367 -49.248
L 328.154862 -49.248
L 328.746055 -49.248
L 329.337248 -49.248
L 329.92844 -49.248
L 330.519633 -49.248
L 331.110826 -49.248
L 331.702018 -49.248
L 332.293211 -49.248
L 332.884404 -49.248
L 333.475596 -49.248
L 334.066789 -49.248
L 334.657982 -49.248
L 335.249174 -49.248
L 335.840367 -49.248
L 336.43156 -49.248
L 337.022752 -49.248
L 337.613945 -49.248
L 338.205138 -49.248
L 338.79633 -49.248
L 339.387523 -49.248
L 339.978716 -49.248
L 340.569908 -49.248
L 341.161101 -49.248
L 341.752294 -49.248
L 342.343486 -49.248
L 342.934679 -49.248
L 343.525872 -49.248
L 344.117064 -49.248
L 344.708257 -49.248
L 345.29945 -49.248
L 345.890642 -49.248
L 346.481835 -49.248
L 347.073028 -49.248
L 347.66422 -49.248
L 348.255413 -49.248
L 348.846606 -49.248
L 349.437798 -49.248
L 350.028991 -49.248
L 350.620183 -49.248
L 351.211376 -49.248
L 351.802569 -49.248
L 352.393761 -49.248
L 352.984954 -49.248
L 353.576147 -49.248
L 354.167339 -49.248
L 354.758532 -49.248
L 355.349725 -49.248
L 355.940917 -49.248
L 356.53211 -49.248
L 357.123303 -49.248
L 357.714495 -49.248
L 358.305688 -49.248
L 358.896881 -49.248
L 359.488073 -49.248
L 360.079266 -49.248
L 360.670459 -49.248
L 361.261651 -49.248
L 361.852844 -49.248
L 362.444037 -49.248
L 363.035229 -49.248
L 363.626422 -49.248
L 364.217615 -49.248
L 364.808807 -49.248
L 365.4 -49.248
L 365.991193 -49.248
L 366.582385 -49.248
L 367.173578 -49.248
L 367.764771 -49.248
L 368.355963 -49.248
L 368.947156 -49.248
L 369.538349 -49.248
L 370.129541 -49.248
L 370.720734 -49.248
L 371.311927 -49.248
L 371.903119 -49.248
L 372.494312 -49.248
L 373.085505 -49.248
L 373.676697 -49.248
L 374.26789 -49.248
L 374.859083 -49.248
L 375.450275 -49.248
L 376.041468 -49.248
L 376.632661 -49.248
L 377.223853 -49.248
L 377.815046 -49.248
L 378.406239 -49.248
L 378.997431 -49.248
L 379.588624 -49.248
L 380.179817 -49.248
L 380.771009 -49.248
L 381.362202 -49.248
L 381.953394 -49.248
L 382.544587 -49.248
L 383.13578 -49.248
L 383.726972 -49.248
L 384.318165 -49.248
L 384.909358 -49.248
L 385.50055 -49.248
L 386.091743 -49.248
L 386.682936 -49.248
L 387.274128 -49.248
L 387.865321 -49.248
L 388.456514 -49.248
L 389.047706 -49.248
L 389.638899 -49.248
L 390.230092 -49.248
L 390.821284 -49.248
L 391.412477 -49.248
L 392.00367 -49.248
L 392.594862 -49.248
L 393.186055 -49.248
L 393.777248 -49.248
L 394.36844 -49.248
L 394.959633 -49.248
L 395.550826 -49.248
L 396.142018 -49.248
L 396.733211 -49.248
L 397.324404 -49.248
L 397.915596 -49.248
L 398.506789 -49.248
L 399.097982 -49.248
L 399.689174 -49.248
L 400.280367 -49.248
L 400.87156 -49.248
L 401.462752 -49.248
L 402.053945 -49.248
L 402.645138 -49.248
L 403.23633 -49.248
L 403.827523 -49.248
L 404.418716 -49.248
L 405.009908 -49.248
L 405.601101 -49.248
L 406.192294 -49.248
L 406.783486 -49.248
L 407.374679 -49.248
L 407.965872 -49.248
L 408.557064 -49.248
L 409.148257 -49.248
L 409.73945 -49.248
L 410.330642 -49.248
L 410.921835 -49.248
L 411.513028 -49.248
L 412.10422 -49.248
L 412.695413 -49.248
L 413.286606 -49.248
L 413.877798 -49.248
L 414.468991 -49.248
L 415.060183 -49.248
L 415.651376 -49.248
L 416.242569 -49.248
L 416.833761 -49.248
L 417.424954 -49.248
L 418.016147 -49.248
L 418.607339 -49.248
L 419.198532 -49.248
L 419.789725 -49.248
L 420.380917 -49.248
L 420.97211 -49.248
L 421.563303 -49.248
L 422.154495 -49.248
L 422.745688 -49.248
L 423.336881 -49.248
L 423.928073 -49.248
L 424.519266 -49.248
L 425.110459 -49.248
L 425.701651 -49.248
L 426.292844 -49.248
L 426.884037 -49.248
L 427.475229 -49.248
L 428.066422 -49.248
L 428.657615 -49.248
L 429.248807 -49.248
L 429.84 -49.248
L 430.431193 -49.248
L 431.022385 -49.248
L 431.613578 -49.248
L 432.204771 -49.248
L 432.795963 -49.248
L 433.387156 -49.248
L 433.978349 -49.248
L 434.569541 -49.248
L 435.160734 -49.248
L 435.751927 -50.53797
L 436.343119 -50.61768
L 436.934312 -50.716528
L 437.525505 -50.835591
L 438.116697 -50.976064
L 438.70789 -51.139255
L 439.299083 -51.326583
L 439.890275 -51.53957
L 440.481468 -51.779838
L 441.072661 -52.049096
L 441.663853 -52.349135
L 442.255046 -52.681816
L 442.846239 -53.049054
L 443.437431 -53.452807
L 444.028624 -53.895055
L 444.619817 -54.377788
L 445.211009 -54.902978
L 445.802202 -55.472566
L 446.393394 -56.088428
L 446.984587 -56.752361
L 447.57578 -57.466047
L 448.166972 -58.23103
L 448.758165 -59.04869
L 449.349358 -59.920204
L 449.94055 -60.846526
L 450.531743 -61.828351
L 451.122936 -62.86609
L 451.714128 -63.959834
L 452.305321 -65.109332
L 452.896514 -66.313963
L 453.487706 -67.57271
L 454.078899 -68.884137
L 454.670092 -70.246375
L 455.261284 -71.657099
L 455.852477 -73.113522
L 456.44367 -74.612381
L 457.034862 -76.14994
L 457.626055 -77.721987
L 458.217248 -79.323842
L 458.80844 -80.950369
L 459.399633 -82.595995
L 459.990826 -84.254731
L 460.582018 -85.920201
L 461.173211 -87.585681
L 461.764404 -89.24413
L 462.355596 -90.888246
L 462.946789 -92.510508
L 463.537982 -94.103232
L 464.129174 -95.658631
L 464.720367 -97.168876
L 465.31156 -98.626159
L 465.902752 -100.022759
L 466.493945 -101.351112
L 467.085138 -102.603876
L 467.67633 -103.773998
L 468.267523 -104.854781
L 468.858716 -105.83995
L 469.449908 -106.723706
L 470.041101 -107.500789
L 470.632294 -108.166528
L 471.223486 -108.716889
L 471.814679 -109.148511
L 472.405872 -109.458748
L 472.997064 -109.64569
L 473.588257 -109.708186
L 474.17945 -109.645854
L 474.770642 -109.459088
L 475.361835 -109.149052
L 475.953028 -108.717669
L 476.54422 -108.167604
L 477.135413 -107.502235
L 477.726606 -106.72562
L 478.317798 -105.842459
L 478.908991 -104.858047
L 479.500183 -103.778223
L 480.091376 -102.609319
L 480.682569 -101.358093
L 481.273761 -100.031676
L 481.864954 -98.637507
L 482.456147 -97.183264
L 483.047339 -95.676806
L 483.638532 -94.126109
L 484.229725 -92.5392
L 484.820917 -90.924105
L 485.41211 -89.288787
L 486.003303 -87.641099
L 486.594495 -85.988735
L 487.185688 -84.339189
L 487.776881 -82.699716
L 488.368073 -81.077306
L 488.959266 -79.478655
L 489.550459 -77.910146
L 490.141651 -76.377842
L 490.732844 -74.887472
L 491.324037 -73.444434
L 491.915229 -72.053796
L 492.506422 -70.720307
L 493.097615 -69.448407
L 493.688807 -68.242241
L 494.28 -67.105682
L 494.871193 -66.042344
L 495.462385 -65.055607
L 496.053578 -64.148634
L 496.644771 -63.324388
L 497.235963 -62.585654
L 497.827156 -61.935043
L 498.418349 -61.375008
L 499.009541 -60.907845
L 499.600734 -60.535688
L 500.191927 -60.260506
L 500.783119 -60.084083
L 501.374312 -60.008
L 501.965505 -60.033603
L 502.556697 -60.161966
L 503.14789 -60.393852
L 503.739083 -60.729661
L 504.330275 -61.169378
L 504.921468 -61.712517
L 505.512661 -62.358056
L 506.103853 -63.104383
L 506.695046 -63.949228
L 507.286239 -64.88961
L 507.877431 -65.921784
L 508.468624 -67.041192
L 509.059817 -68.242427
L 509.651009 -69.519203
L 510.242202 -70.864344
L 510.833394 -72.269784
L 511.424587 -73.726578
L 512.01578 -75.224939
L 512.606972 -76.754288
L 513.198165 -78.303319
L 513.789358 -79.860089
L 514.38055 -81.412121
L 514.971743 -82.946524
L 515.562936 -84.450129
L 516.154128 -85.909638
L 516.745321 -87.311784
L 517.336514 -88.643497
L 517.927706 -89.892075
L 518.518899 -91.045361
L 519.110092 -92.09191
L 519.701284 -93.021159
L 520.292477 -93.823577
L 520.88367 -94.490813
L 521.474862 -95.015822
L 522.066055 -95.392969
L 522.657248 -95.61812
L 523.24844 -95.6887
L 523.839633 -95.603733
L 524.430826 -95.363851
L 525.022018 -94.971279
L 525.613211 -94.429794
L 526.204404 -93.744655
L 526.795596 -92.922513
L 527.386789 -91.971301
L 527.977982 -90.900099
L 528.569174 -89.718986
L 529.160367 -88.438881
L 529.75156 -87.071372
L 530.342752 -85.628537
L 530.933945 -84.12277
L 531.525138 -82.566601
L 532.11633 -80.972527
L 532.707523 -79.352843
L 533.298716 -77.719496
L 533.889908 -76.083939
L 534.481101 -74.45701
L 535.072294 -72.848826
L 535.663486 -71.268693
L 536.254679 -69.725035
L 536.845872 -68.225342
L 537.437064 -66.776144
L 538.028257 -65.382989
L 538.61945 -64.050449
L 539.210642 -62.782138
L 539.801835 -61.580744
L 540.393028 -60.448076
L 540.98422 -59.385112
L 541.575413 -58.392072
L 542.166606 -57.468478
L 542.757798 -56.613234
L 543.348991 -55.824701
L 543.940183 -55.100773
L 544.531376 -54.438955
L 545.122569 -53.836438
L 545.713761 -53.29017
L 546.304954 -52.79692
L 546.896147 -52.353345
L 547.487339 -51.956043
L 548.078532 -51.601603
L 548.669725 -51.286652
L 549.260917 -51.007887
L 549.85211 -50.762114
L 550.443303 -50.546267
L 551.034495 -50.357435
L 551.625688 -50.192869
L 552.216881 -50.049998
L 552.808073 -49.926433
L 553.399266 -49.819969
L 553.990459 -49.728585
L 554.581651 -49.650439
L 555.172844 -49.583863
L 555.764037 -49.527355
L 556.355229 -49.47957
L 556.946422 -49.439311
L 557.537615 -49.405518
L 558.128807 -49.377256
L 558.72 -49.353707
L 558.72 -49.248
L 558.72 -49.248
L 558.128807 -49.248
L 557.537615 -49.248
L 556.946422 -49.248
L 556.355229 -49.248
L 555.764037 -49.248
L 555.172844 -49.248
L 554.581651 -49.248
L 553.990459 -49.248
L 553.399266 -49.248
L 552.808073 -49.248
L 552.216881 -49.248
L 551.625688 -49.248
L 551.034495 -49.248
L 550.443303 -49.248
L 549.85211 -49.248
L 549.260917 -49.248
L 548.669725 -49.248
L 548.078532 -49.248
L 547.487339 -49.248
L 546.896147 -49.248
L 546.304954 -49.248
L 545.713761 -49.248
L 545.122569 -49.248
L 544.531376 -49.248
L 543.940183 -49.248
L 543.348991 -49.248
L 542.757798 -49.248
L 542.166606 -49.248
L 541.575413 -49.248
L 540.98422 -49.248
L 540.393028 -49.248
L 539.801835 -49.248
L 539.210642 -49.248
L 538.61945 -49.248
L 538.028257 -49.248
L 537.437064 -49.248
L 536.845872 -49.248
L 536.254679 -49.248
L 535.663486 -49.248
L 535.072294 -49.248
L 534.481101 -49.248
L 533.889908 -49.248
L 533.298716 -49.248
L 532.707523 -49.248
L 532.11633 -49.248
L 531.525138 -49.248
L 530.933945 -49.248
L 530.342752 -49.248
L 529.75156 -49.248
L 529.160367 -49.248
L 528.569174 -49.248
L 527.977982 -49.248
L 527.386789 -49.248
L 526.795596 -49.248
L 526.204404 -49.248
L 525.613211 -49.248
L 525.022018 -49.248
L 524.430826 -49.248
L 523.839633 -49.248
L 523.24844 -49.248
L 522.657248 -49.248
L 522.066055 -49.248
L 521.474862 -49.248
L 520.88367 -49.248
L 520.292477 -49.248
L 519.701284 -49.248
L 519.110092 -49.248
L 518.518899 -49.248
L 517.927706 -49.248
L 517.336514 -49.248
L 516.745321 -49.248
L 516.154128 -49.248
L 515.562936 -49.248
L 514.971743 -49.248
L 514.38055 -49.248
L 513.789358 -49.248
L 513.198165 -49.248
L 512.606972 -49.248
L 512.01578 -49.248
L 511.424587 -49.248
L 510.833394 -49.248
L 510.242202 -49.248
L 509.651009 -49.248
L 509.059817 -49.248
L 508.468624 -49.248
L 507.877431 -49.248
L 507.286239 -49.248
L 506.695046 -49.248
L 506.103853 -49.248
L 505.512661 -49.248
L 504.921468 -49.248
L 504.330275 -49.248
L 503.739083 -49.248
L 503.14789 -49.248
L 502.556697 -49.248
L 501.965505 -49.248
L 501.374312 -49.248
L 500.783119 -49.248
L 500.191927 -49.248
L 499.600734 -49.248
L 499.009541 -49.248
L 498.418349 -49.248
L 497.827156 -49.248
L 497.235963 -49.248
L 496.644771 -49.248
L 496.053578 -49.248
L 495.462385 -49.248
L 494.871193 -49.248
L 494.28 -49.248
L 493.688807 -49.248
L 493.097615 -49.248
L 492.506422 -49.248
L 491.915229 -49.248
L 491.324037 -49.248
L 490.732844 -49.248
L 490.141651 -49.248
L 489.550459 -49.248
L 488.959266 -49.248
L 488.368073 -49.248
L 487.776881 -49.248
L 487.185688 -49.248
L 486.594495 -49.248
L 486.003303 -49.248
L 485.41211 -49.248
L 484.820917 -49.248
L 484.229725 -49.248
L 483.638532 -49.248
L 483.047339 -49.248
L 482.456147 -49.248
L 481.864954 -49.248
L 481.273761 -49.248
L 480.682569 -49.248
L 480.091376 -49.248
L 479.500183 -49.248
L 478.908991 -49.248
L 478.317798 -49.248
L 477.726606 -49.248
L 477.135413 -49.248
L 476.54422 -49.248
L 475.953028 -49.248
L 475.361835 -49.248
L 474.770642 -49.248
L 474.17945 -49.248
L 473.588257 -49.248
L 472.997064 -49.248
L 472.405872 -49.248
L 471.814679 -49.248
L 471.223486 -49.248
L 470.632294 -49.248
L 470.041101 -49.248
L 469.449908 -49.248
L 468.858716 -49.248
L 468.267523 -49.248
L 467.67633 -49.248
L 467.085138 -49.248
L 466.493945 -49.248
L 465.902752 -49.248
L 465.31156 -49.248
L 464.720367 -49.248
L 464.129174 -49.248
L 463.537982 -49.248
L 462.946789 -49.248
L 462.355596 -49.248
L 461.764404 -49.248
L 461.173211 -49.248
L 460.582018 -49.248
L 459.990826 -49.248
L 459.399633 -49.248
L 458.80844 -49.248
L 458.217248 -49.248
L 457.626055 -49.248
L 457.034862 -49.248
L 456.44367 -49.248
L 455.852477 -49.248
L 455.261284 -49.248
L 454.670092 -49.248
L 454.078899 -49.248
L 453.487706 -49.248
L 452.896514 -49.248
L 452.305321 -49.248
L 451.714128 -49.248
L 451.122936 -49.248
L 450.531743 -49.248
L 449.94055 -49.248
L 449.349358 -49.248
L 448.758165 -49.248
L 448.166972 -49.248
L 447.57578 -49.248
L 446.984587 -49.248
L 446.393394 -49.248
L 445.802202 -49.248
L 445.211009 -49.248
L 444.619817 -49.248
L 444.028624 -49.248
L 443.437431 -49.248
L 442.846239 -49.248
L 442.255046 -49.248
L 441.663853 -49.248
L 441.072661 -49.248
L 440.481468 -49.248
L 439.890275 -49.248
L 439.299083 -49.248
L 438.70789 -49.248
L 438.116697 -49.248
L 437.525505 -49.248
L 436.934312 -49.248
L 436.343119 -49.248
L 435.751927 -49.248
L 435.160734 -49.248
L 434.569541 -49.248
L 433.978349 -49.248
L 433.387156 -49.248
L 432.795963 -49.248
L 432.204771 -49.248
L 431.613578 -49.248
L 431.022385 -49.248
L 430.431193 -49.248
L 429.84 -49.248
L 429.248807 -49.248
L 428.657615 -49.248
L 428.066422 -49.248
L 427.475229 -49.248
L 426.884037 -49.248
L 426.292844 -49.248
L 425.701651 -49.248
L 425.110459 -49.248
L 424.519266 -49.248
L 423.928073 -49.248
L 423.336881 -49.248
L 422.745688 -49.248
L 422.154495 -49.248
L 421.563303 -49.248
L 420.97211 -49.248
L 420.380917 -49.248
L 419.789725 -49.248
L 419.198532 -49.248
L 418.607339 -49.248
L 418.016147 -49.248
L 417.424954 -49.248
L 416.833761 -49.248
L 416.242569 -49.248
L 415.651376 -49.248
L 415.060183 -49.248
L 414.468991 -49.248
L 413.877798 -49.248
L 413.286606 -49.248
L 412.695413 -49.248
L 412.10422 -49.248
L 411.513028 -49.248
L 410.921835 -49.248
L 410.330642 -49.248
L 409.73945 -49.248
L 409.148257 -49.248
L 408.557064 -49.248
L 407.965872 -49.248
L 407.374679 -49.248
L 406.783486 -49.248
L 406.192294 -49.248
L 405.601101 -49.248
L 405.009908 -49.248
L 404.418716 -49.248
L 403.827523 -49.248
L 403.23633 -49.248
L 402.645138 -49.248
L 402.053945 -49.248
L 401.462752 -49.248
L 400.87156 -49.248
L 400.280367 -49.248
L 399.689174 -49.248
L 399.097982 -49.248
L 398.506789 -49.248
L 397.915596 -49.248
L 397.324404 -49.248
L 396.733211 -49.248
L 396.142018 -49.248
L 395.550826 -49.248
L 394.959633 -49.248
L 394.36844 -49.248
L 393.777248 -49.248
L 393.186055 -49.248
L 392.594862 -49.248
L 392.00367 -49.248
L 391.412477 -49.248
L 390.821284 -49.248
L 390.230092 -49.248
L 389.638899 -49.248
L 389.047706 -49.248
L 388.456514 -49.248
L 387.865321 -49.248
L 387.274128 -49.248
L 386.682936 -49.248
L 386.091743 -49.248
L 385.50055 -49.248
L 384.909358 -49.248
L 384.318165 -49.248
L 383.726972 -49.248
L 383.13578 -49.248
L 382.544587 -49.248
L 381.953394 -49.248
L 381.362202 -49.248
L 380.771009 -49.248
L 380.179817 -49.248
L 379.588624 -49.248
L 378.997431 -49.248
L 378.406239 -49.248
L 377.815046 -49.248
L 377.223853 -49.248
L 376.632661 -49.248
L 376.041468 -49.248
L 375.450275 -49.248
L 374.859083 -49.248
L 374.26789 -49.248
L 373.676697 -49.248
L 373.085505 -49.248
L 372.494312 -49.248
L 371.903119 -49.248
L 371.311927 -49.248
L 370.720734 -49.248
L 370.129541 -49.248
L 369.538349 -49.248
L 368.947156 -49.248
L 368.355963 -49.248
L 367.764771 -49.248
L 367.173578 -49.248
L 366.582385 -49.248
L 365.991193 -49.248
L 365.4 -49.248
L 364.808807 -49.248
L 364.217615 -49.248
L 363.626422 -49.248
L 363.035229 -49.248
L 362.444037 -49.248
L 361.852844 -49.248
L 361.261651 -49.248
L 360.670459 -49.248
L 360.079266 -49.248
L 359.488073 -49.248
L 358.896881 -49.248
L 358.305688 -49.248
L 357.714495 -49.248
L 357.123303 -49.248
L 356.53211 -49.248
L 355.940917 -49.248
L 355.349725 -49.248
L 354.758532 -49.248
L 354.167339 -49.248
L 353.576147 -49.248
L 352.984954 -49.248
L 352.393761 -49.248
L 351.802569 -49.248
L 351.211376 -49.248
L 350.620183 -49.248
L 350.028991 -49.248
L 349.437798 -49.248
L 348.846606 -49.248
L 348.255413 -49.248
L 347.66422 -49.248
L 347.073028 -49.248
L 346.481835 -49.248
L 345.890642 -49.248
L 345.29945 -49.248
L 344.708257 -49.248
L 344.117064 -49.248
L 343.525872 -49.248
L 342.934679 -49.248
L 342.343486 -49.248
L 341.752294 -49.248
L 341.161101 -49.248
L 340.569908 -49.248
L 339.978716 -49.248
L 339.387523 -49.248
L 338.79633 -49.248
L 338.205138 -49.248
L 337.613945 -49.248
L 337.022752 -49.248
L 336.43156 -49.248
L 335.840367 -49.248
L 335.249174 -49.248
L 334.657982 -49.248
L 334.066789 -49.248
L 333.475596 -49.248
L 332.884404 -49.248
L 332.293211 -49.248
L 331.702018 -49.248
L 331.110826 -49.248
L 330.519633 -49.248
L 329.92844 -49.248
L 329.337248 -49.248
L 328.746055 -49.248
L 328.154862 -49.248
L 327.56367 -49.248
L 326.972477 -49.248
L 326.381284 -49.248
L 325.790092 -49.248
L 325.198899 -49.248
L 324.607706 -49.248
L 324.016514 -49.248
L 323.425321 -49.248
L 322.834128 -49.248
L 322.242936 -49.248
z
" style="stroke: #6356a5; stroke-opacity: 0.1"/>
    </defs>
    <g clip-path="url(#p456277547c)">
     <use xlink:href="#m60a4723d8b" x="0" y="259.2" style="fill: #6356a5; fill-opacity: 0.1; stroke: #6356a5; stroke-opacity: 0.1"/>
    </g>
   </g>
   <g id="matplotlib.axis_3">
    <g id="text_7">
     <text style="font-size: 10px; font-family: 'Helvetica Neue', 'Arial', 'DejaVu Sans', sans-serif; text-anchor: middle; fill: #525a65" x="440.481468" y="226.092625" transform="rotate(-0 440.481468 226.092625)">Possible responses</text>
    </g>
   </g>
   <g id="matplotlib.axis_4"/>
   <g id="line2d_6">
    <path d="M 435.751927 209.952
L 435.751927 69.984
" clip-path="url(#p456277547c)" style="fill: none; stroke-dasharray: 2.4,2.4; stroke-dashoffset: 0; stroke: #2b8b88; stroke-opacity: 0.7; stroke-width: 0.8"/>
   </g>
   <g id="line2d_7">
    <path d="M 322.242936 209.565643
L 326.381284 209.182997
L 329.92844 208.623559
L 332.884404 207.920029
L 335.249174 207.153717
L 337.613945 206.166309
L 339.978716 204.920728
L 342.343486 203.383145
L 344.708257 201.52679
L 347.073028 199.336242
L 349.437798 196.811845
L 351.802569 193.973751
L 354.758532 190.052933
L 358.896881 184.12996
L 363.626422 177.416249
L 365.991193 174.391752
L 367.764771 172.381153
L 369.538349 170.651848
L 371.311927 169.251988
L 373.085505 168.221662
L 374.26789 167.755406
L 375.450275 167.473156
L 376.632661 167.378653
L 377.815046 167.473156
L 378.997431 167.755406
L 380.179817 168.221662
L 381.362202 168.865778
L 383.13578 170.146457
L 384.909358 171.770943
L 386.682936 173.693536
L 389.047706 176.629648
L 392.00367 180.708046
L 400.280367 192.449571
L 403.23633 196.130447
L 405.601101 198.735992
L 407.965872 201.010701
L 410.330642 202.949595
L 412.695413 204.564485
L 415.060183 205.879552
L 417.424954 206.926904
L 419.789725 207.742461
L 422.745688 208.490861
L 425.701651 208.997634
L 429.248807 209.357166
L 432.795963 209.492253
L 436.343119 209.404004
L 439.299083 209.120379
L 441.663853 208.711266
L 444.028624 208.092758
L 446.393394 207.215211
L 448.166972 206.357976
L 449.94055 205.311542
L 451.714128 204.065937
L 454.078899 202.095771
L 456.44367 199.803955
L 459.399633 196.609788
L 464.720367 190.779319
L 466.493945 189.106047
L 468.267523 187.704262
L 470.041101 186.64562
L 471.223486 186.15907
L 472.405872 185.862259
L 473.588257 185.762462
L 474.770642 185.862124
L 475.953028 186.158758
L 477.135413 186.645042
L 478.317798 187.309102
L 480.091376 188.60265
L 481.864954 190.191734
L 484.229725 192.631608
L 491.324037 200.27124
L 493.688807 202.352587
L 495.462385 203.627529
L 497.235963 204.615733
L 499.009541 205.287008
L 500.191927 205.546003
L 501.374312 205.647027
L 502.556697 205.585427
L 503.739083 205.358298
L 504.921468 204.965067
L 506.695046 204.07018
L 508.468624 202.833115
L 510.242202 201.303509
L 512.606972 198.946999
L 516.745321 194.723047
L 518.518899 193.229279
L 519.701284 192.438781
L 520.88367 191.850786
L 522.066055 191.489842
L 523.24844 191.371523
L 524.430826 191.501492
L 525.613211 191.875199
L 526.795596 192.478248
L 527.977982 193.287396
L 529.75156 194.819233
L 532.11633 197.259322
L 537.437064 202.939158
L 539.801835 205.017788
L 541.575413 206.293545
L 543.348991 207.320725
L 545.122569 208.11621
L 546.896147 208.709581
L 549.260917 209.247886
L 552.216881 209.631128
L 555.764037 209.840233
L 558.72 209.909708
L 558.72 209.909708
" clip-path="url(#p456277547c)" style="fill: none; stroke-dasharray: 4.5,3; stroke-dashoffset: 0; stroke: #3e73a8; stroke-opacity: 0.6; stroke-width: 1.5"/>
   </g>
   <g id="line2d_8">
    <path d="M 322.242936 209.952
L 435.160734 209.952
L 435.751927 208.66203
L 437.525505 208.364409
L 439.299083 207.873417
L 441.072661 207.150904
L 442.846239 206.150946
L 444.619817 204.822212
L 446.393394 203.111572
L 448.166972 200.96897
L 449.94055 198.353474
L 451.714128 195.240166
L 453.487706 191.62729
L 455.261284 187.542901
L 457.626055 181.478013
L 461.764404 169.95587
L 464.720367 162.031124
L 466.493945 157.848888
L 468.267523 154.345219
L 469.449908 152.476294
L 470.632294 151.033472
L 471.814679 150.051489
L 472.997064 149.55431
L 473.588257 149.491814
L 474.17945 149.554146
L 474.770642 149.740912
L 475.953028 150.482331
L 477.135413 151.697765
L 478.317798 153.357541
L 479.500183 155.421777
L 481.273761 159.168324
L 483.047339 163.523194
L 486.003303 171.558901
L 490.141651 182.822158
L 491.915229 187.146204
L 493.688807 190.957759
L 495.462385 194.144393
L 496.644771 195.875612
L 497.827156 197.264957
L 499.009541 198.292155
L 500.191927 198.939494
L 501.374312 199.192
L 502.556697 199.038034
L 503.739083 198.470339
L 504.921468 197.487483
L 506.103853 196.095617
L 507.286239 194.31039
L 508.468624 192.158808
L 510.242202 188.335656
L 512.606972 182.445712
L 516.745321 171.888216
L 518.518899 168.154639
L 519.701284 166.178841
L 520.88367 164.709187
L 522.066055 163.807031
L 522.657248 163.58188
L 523.24844 163.5113
L 523.839633 163.596267
L 524.430826 163.836149
L 525.022018 164.228721
L 526.204404 165.455345
L 527.386789 167.228699
L 528.569174 169.481014
L 530.342752 173.571463
L 532.707523 179.847157
L 536.845872 190.974658
L 538.61945 195.149551
L 540.393028 198.751924
L 542.166606 201.731522
L 543.348991 203.375299
L 544.531376 204.761045
L 545.713761 205.90983
L 546.896147 206.846655
L 548.669725 207.913348
L 550.443303 208.653733
L 552.216881 209.150002
L 554.581651 209.549561
L 557.537615 209.794482
L 558.72 209.846293
L 558.72 209.846293
" clip-path="url(#p456277547c)" style="fill: none; stroke: #6356a5; stroke-width: 1.9; stroke-linecap: square"/>
   </g>
   <g id="patch_7">
    <path d="M 322.242936 209.952
L 558.72 209.952
" style="fill: none; stroke: #cdd3dd; stroke-width: 0.8; stroke-linejoin: miter; stroke-linecap: square"/>
   </g>
   <g id="text_8">
    <text style="font-size: 10px; font-family: 'Helvetica Neue', 'Arial', 'DejaVu Sans', sans-serif; fill: #2b8b88" transform="translate(466.69889 75.44128)">Meets expert</text>
    <text style="font-size: 10px; font-family: 'Helvetica Neue', 'Arial', 'DejaVu Sans', sans-serif; fill: #2b8b88" transform="translate(449.653578 85.980343)">semantic constraints</text>
   </g>
   <g id="text_9">
    <text style="font-size: 9px; font-family: 'Helvetica Neue', 'Arial', 'DejaVu Sans', sans-serif; fill: #87909b" transform="translate(348.142468 76.495187)">Outside expert</text>
    <text style="font-size: 9px; font-family: 'Helvetica Neue', 'Arial', 'DejaVu Sans', sans-serif; fill: #87909b" transform="translate(336.055046 85.980343)">semantic constraints</text>
   </g>
   <g id="text_10">
    <text style="font-weight: 500; font-size: 12px; font-family: 'Helvetica Neue', 'Arial', 'DejaVu Sans', sans-serif; text-anchor: start; fill: #20252c" x="322.242936" y="27.984" transform="rotate(-0 322.242936 27.984)">2  After: meet semantic constraints</text>
   </g>
   <g id="legend_2">
    <g id="line2d_9">
     <path d="M 326.042936 55.274186
L 335.542936 55.274186
L 345.042936 55.274186
" style="fill: none; stroke-dasharray: 4.5,3; stroke-dashoffset: 0; stroke: #3e73a8; stroke-opacity: 0.6; stroke-width: 1.5"/>
    </g>
    <g id="text_11">
     <text style="font-size: 9.5px; font-family: 'Helvetica Neue', 'Arial', 'DejaVu Sans', sans-serif; text-anchor: start; fill: #20252c" x="352.642936" y="58.599186" transform="rotate(-0 352.642936 58.599186)">Student model</text>
    </g>
    <g id="line2d_10">
     <path d="M 428.423248 55.274186
L 437.923248 55.274186
L 447.423248 55.274186
" style="fill: none; stroke: #6356a5; stroke-width: 1.9; stroke-linecap: square"/>
    </g>
    <g id="text_12">
     <text style="font-size: 9.5px; font-family: 'Helvetica Neue', 'Arial', 'DejaVu Sans', sans-serif; text-anchor: start; fill: #20252c" x="455.023248" y="58.599186" transform="rotate(-0 455.023248 58.599186)">New training data</text>
    </g>
   </g>
  </g>
 </g>
 <defs>
  <clipPath id="p70654d7d34">
   <rect x="43.2" y="69.984" width="236.477064" height="139.968"/>
  </clipPath>
  <clipPath id="p456277547c">
   <rect x="322.242936" y="69.984" width="236.477064" height="139.968"/>
  </clipPath>
 </defs>
</svg>
