<svg xmlns="http://www.w3.org/2000/svg" viewBox="0 0 360 460" role="img"><title>E2S-Online</title><defs><marker id="arrow" viewBox="0 0 8 8" refX="7" refY="4" markerWidth="6" markerHeight="6" orient="auto-start-reverse"><path d="M0 0 L8 4 L0 8" fill="none" stroke="#747b86" stroke-width="1.2"/></marker></defs><rect width="100%" height="100%" fill="white"/><g font-family="Inter, Helvetica Neue, Arial, sans-serif" fill="#20252c"><rect x="32" y="24" width="264" height="90" rx="6" fill="#f5f3fa" stroke="#6356a5" stroke-opacity=".42" stroke-width="1"/><path d="M44 36 H64" stroke="#6356a5" stroke-width="2" stroke-linecap="round"/><text x="164.0" y="70.0" text-anchor="middle" font-size="14" font-weight="500" fill="#20252c">Fit sampler</text><text x="164.0" y="88.0" text-anchor="middle" font-size="11.5" font-weight="400" fill="#525a65">Current student</text><path d="M164 117 V153" fill="none" stroke="#747b86" stroke-width="1.2" marker-end="url(#arrow)"/><rect x="35" y="155" width="264" height="90" rx="6" fill="white" stroke="#2b8b88" stroke-opacity=".22" stroke-width="1"/><rect x="32" y="158" width="264" height="90" rx="6" fill="#eff8f7" stroke="#2b8b88" stroke-opacity=".42" stroke-width="1"/><path d="M44 170 H64" stroke="#2b8b88" stroke-width="2" stroke-linecap="round"/><text x="164.0" y="204.0" text-anchor="middle" font-size="14" font-weight="500" fill="#20252c">Generate batch</text><text x="164.0" y="222.0" text-anchor="middle" font-size="11.5" font-weight="400" fill="#525a65">E2S data</text><path d="M164 251 V287" fill="none" stroke="#747b86" stroke-width="1.2" marker-end="url(#arrow)"/><rect x="32" y="292" width="264" height="90" rx="6" fill="#f2f7fc" stroke="#3e73a8" stroke-opacity=".42" stroke-width="1"/><path d="M44 304 H64" stroke="#3e73a8" stroke-width="2" stroke-linecap="round"/><text x="164.0" y="338.0" text-anchor="middle" font-size="14" font-weight="500" fill="#20252c">SFT</text><text x="164.0" y="356.0" text-anchor="middle" font-size="11.5" font-weight="400" fill="#525a65">Updated student</text><path d="M299 337 H337 V69 H300" fill="none" stroke="#747b86" stroke-width="1.2" marker-end="url(#arrow)"/><text x="180" y="425" text-anchor="middle" font-size="14" font-weight="400" fill="#525a65">Refit against the updated student</text><text x="180" y="445" text-anchor="middle" font-size="13" font-weight="400" fill="#525a65">Repeat the cycle</text></g></svg>